<?xml version="1.0" encoding="UTF-8" standalone="no"?>
<!-- Created with Inkscape (http://www.inkscape.org/) -->

<svg
   xmlns:dc="http://purl.org/dc/elements/1.1/"
   xmlns:cc="http://creativecommons.org/ns#"
   xmlns:rdf="http://www.w3.org/1999/02/22-rdf-syntax-ns#"
   xmlns:svg="http://www.w3.org/2000/svg"
   xmlns="http://www.w3.org/2000/svg"
   xmlns:sodipodi="http://sodipodi.sourceforge.net/DTD/sodipodi-0.dtd"
   xmlns:inkscape="http://www.inkscape.org/namespaces/inkscape"
   width="640"
   height="640"
   id="svg2"
   version="1.1"
   inkscape:version="0.48.4 r9939"
   sodipodi:docname="Estrela.svg">
  <defs
     id="defs4" />
  <sodipodi:namedview
     id="base"
     pagecolor="#000080"
     bordercolor="#666666"
     borderopacity="1.0"
     inkscape:pageopacity="1"
     inkscape:pageshadow="2"
     inkscape:zoom="0.63152174"
     inkscape:cx="172.76202"
     inkscape:cy="274.40129"
     inkscape:document-units="px"
     inkscape:current-layer="layer1"
     showgrid="true"
     inkscape:window-width="1366"
     inkscape:window-height="768"
     inkscape:window-x="0"
     inkscape:window-y="0"
     inkscape:window-maximized="1"
     showborder="true"
     borderlayer="false"
     inkscape:showpageshadow="false"
     showguides="true"
     inkscape:snap-from-guide="true"
     objecttolerance="50"
     inkscape:snap-bbox="false"
     inkscape:snap-object-midpoints="false"
     inkscape:snap-page="false"
     inkscape:snap-nodes="true">
    <inkscape:grid
       type="xygrid"
       id="grid2997"
       empspacing="8"
       visible="true"
       enabled="true"
       snapvisiblegridlinesonly="true"
       dotted="true" />
  </sodipodi:namedview>
  <metadata
     id="metadata7">
    <rdf:RDF>
      <cc:Work
         rdf:about="">
        <dc:format>image/svg+xml</dc:format>
        <dc:type
           rdf:resource="http://purl.org/dc/dcmitype/StillImage" />
      </cc:Work>
    </rdf:RDF>
  </metadata>
  <g
     inkscape:label="Layer 1"
     inkscape:groupmode="layer"
     id="layer1"
     transform="translate(0,-412.36218)">
    <rect
       style="fill:#000080;fill-opacity:1;stroke:none;stroke-width:8;stroke-miterlimit:4;stroke-opacity:1;stroke-dasharray:none"
       id="rect4954"
       width="640"
       height="640"
       x="0"
       y="0"
       transform="translate(0,412.36218)" />
    <path
       style="fill:#ffffff;fill-rule:evenodd;stroke:#ffffff;stroke-width:7.98787260000000020;stroke-linecap:butt;stroke-linejoin:miter;stroke-opacity:1;fill-opacity:1"
       d="M 138.90625 194.96875 C 68.118921 233.13972 20 307.93772 20 394 C 20 518.8197 121.1803 620 246 620 C 332.06228 620 406.86028 571.88108 445.03125 501.09375 C 443.39346 501.28987 441.77151 501.55154 440.125 501.71875 C 435.50033 502.18841 430.84575 502.54354 426.15625 502.78125 C 421.46675 503.01896 416.74858 503.125 412 503.125 C 407.25142 503.125 402.53325 503.01896 397.84375 502.78125 C 393.15425 502.54354 388.49967 502.18841 383.875 501.71875 C 379.25033 501.24909 374.64782 500.6646 370.09375 499.96875 C 365.53968 499.2729 361.0402 498.47877 356.5625 497.5625 C 352.0848 496.64623 347.64558 495.59968 343.25 494.46875 C 338.85442 493.33782 334.49519 492.12108 330.1875 490.78125 C 325.87981 489.44142 321.62029 487.98047 317.40625 486.4375 C 313.19221 484.89453 309.02088 483.27159 304.90625 481.53125 C 300.79162 479.79091 296.72821 477.93195 292.71875 476 C 288.70929 474.06805 284.74227 472.0553 280.84375 469.9375 C 276.94523 467.8197 273.12557 465.61039 269.34375 463.3125 C 265.56193 461.01461 261.81561 458.62846 258.15625 456.15625 C 254.49689 453.68404 250.90613 451.10953 247.375 448.46875 C 243.84387 445.82797 240.39715 443.11607 237 440.3125 C 233.60285 437.50893 230.2574 434.61686 227 431.65625 C 223.7426 428.69564 220.54939 425.67439 217.4375 422.5625 C 214.32561 419.45061 211.30436 416.2574 208.34375 413 C 205.38314 409.7426 202.49107 406.39715 199.6875 403 C 196.88393 399.60285 194.17203 396.15613 191.53125 392.625 C 188.89047 389.09387 186.31596 385.50311 183.84375 381.84375 C 181.37154 378.18439 178.98539 374.43807 176.6875 370.65625 C 174.38961 366.87443 172.1803 363.05477 170.0625 359.15625 C 167.9447 355.25773 165.93195 351.29071 164 347.28125 C 162.06805 343.27179 160.20909 339.20838 158.46875 335.09375 C 156.72841 330.97912 155.10547 326.80779 153.5625 322.59375 C 152.01953 318.37971 150.55858 314.12019 149.21875 309.8125 C 147.87892 305.50481 146.66218 301.14558 145.53125 296.75 C 144.40032 292.35442 143.35377 287.9152 142.4375 283.4375 C 141.52123 278.9598 140.7271 274.46032 140.03125 269.90625 C 139.3354 265.35218 138.75091 260.74967 138.28125 256.125 C 137.81159 251.50033 137.45646 246.84575 137.21875 242.15625 C 136.98104 237.46675 136.875 232.74858 136.875 228 C 136.875 223.25142 136.98104 218.53325 137.21875 213.84375 C 137.45646 209.15425 137.81159 204.49967 138.28125 199.875 C 138.44846 198.22849 138.71013 196.60654 138.90625 194.96875 z "
       id="path4943"
       transform="translate(0,412.36218)" />
    <path
       style="fill:#000080;fill-rule:evenodd;stroke:#ffffff;stroke-width:7.9878726;stroke-linecap:butt;stroke-linejoin:miter;stroke-opacity:1"
       d="M 138.90625 194.96875 C 138.71013 196.60654 138.44846 198.22849 138.28125 199.875 C 137.81159 204.49967 137.45646 209.15425 137.21875 213.84375 C 136.98104 218.53325 136.875 223.25142 136.875 228 C 136.875 232.74858 136.98104 237.46675 137.21875 242.15625 C 137.45646 246.84575 137.81159 251.50033 138.28125 256.125 C 138.75091 260.74967 139.3354 265.35218 140.03125 269.90625 C 140.7271 274.46032 141.52123 278.9598 142.4375 283.4375 C 143.35377 287.9152 144.40032 292.35442 145.53125 296.75 C 146.66218 301.14558 147.87892 305.50481 149.21875 309.8125 C 150.55858 314.12019 152.01953 318.37971 153.5625 322.59375 C 155.10547 326.80779 156.72841 330.97912 158.46875 335.09375 C 160.20909 339.20838 162.06805 343.27179 164 347.28125 C 165.93195 351.29071 167.9447 355.25773 170.0625 359.15625 C 172.1803 363.05477 174.38961 366.87443 176.6875 370.65625 C 178.98539 374.43807 181.37154 378.18439 183.84375 381.84375 C 186.31596 385.50311 188.89047 389.09387 191.53125 392.625 C 194.17203 396.15613 196.88393 399.60285 199.6875 403 C 202.49107 406.39715 205.38314 409.7426 208.34375 413 C 211.30436 416.2574 214.32561 419.45061 217.4375 422.5625 C 220.54939 425.67439 223.7426 428.69564 227 431.65625 C 230.2574 434.61686 233.60285 437.50893 237 440.3125 C 240.39715 443.11607 243.84387 445.82797 247.375 448.46875 C 250.90613 451.10953 254.49689 453.68404 258.15625 456.15625 C 261.81561 458.62846 265.56193 461.01461 269.34375 463.3125 C 273.12557 465.61039 276.94523 467.8197 280.84375 469.9375 C 284.74227 472.0553 288.70929 474.06805 292.71875 476 C 296.72821 477.93195 300.79162 479.79091 304.90625 481.53125 C 309.02088 483.27159 313.19221 484.89453 317.40625 486.4375 C 321.62029 487.98047 325.87981 489.44142 330.1875 490.78125 C 334.49519 492.12108 338.85442 493.33782 343.25 494.46875 C 347.64558 495.59968 352.0848 496.64623 356.5625 497.5625 C 361.0402 498.47877 365.53968 499.2729 370.09375 499.96875 C 374.64782 500.6646 379.25033 501.24909 383.875 501.71875 C 388.49967 502.18841 393.15425 502.54354 397.84375 502.78125 C 402.53325 503.01896 407.25142 503.125 412 503.125 C 416.74858 503.125 421.46675 503.01896 426.15625 502.78125 C 430.84575 502.54354 435.50033 502.18841 440.125 501.71875 C 441.77151 501.55154 443.39346 501.28987 445.03125 501.09375 C 462.22122 469.21528 472 432.75742 472 394 C 472 269.1803 370.8197 168 246 168 C 207.24258 168 170.78472 177.77878 138.90625 194.96875 z "
       id="path3005"
       transform="translate(0,412.36218)" />
    <path
       sodipodi:type="star"
       style="fill:#ffffff;fill-opacity:1"
       id="path3011"
       sodipodi:sides="8"
       sodipodi:cx="400"
       sodipodi:cy="240"
       sodipodi:r1="192"
       sodipodi:r2="23.040001"
       sodipodi:arg1="1.5707963"
       sodipodi:arg2="1.9634954"
       inkscape:flatsided="false"
       inkscape:rounded="0"
       inkscape:randomized="0"
       d="M 400.00001,432 391.18297,261.28619 264.2355,375.76451 378.71381,248.81703 208,240.00001 378.71381,231.18297 264.23549,104.2355 391.18297,218.71381 399.99999,48 408.81703,218.71381 535.7645,104.23549 421.28619,231.18297 592,239.99999 421.28619,248.81703 535.76451,375.7645 408.81703,261.28619 z"
       transform="translate(12,400.36218)" />
    <path
       sodipodi:type="arc"
       style="fill:none;stroke:#ffffff;stroke-width:8.76521778;stroke-linecap:butt;stroke-linejoin:miter;stroke-opacity:1"
       id="path3005-4"
       sodipodi:cx="264"
       sodipodi:cy="376"
       sodipodi:rx="248"
       sodipodi:ry="248"
       d="m 512,376 a 248,248 0 1 1 -496,0 248,248 0 1 1 496,0 z"
       transform="matrix(0.47546858,0,0,0.47546858,286.47629,461.58599)" />
  </g>
</svg>
